<?xml version="1.0" encoding="iso-8859-1"?>
<!-- Generator: Adobe Illustrator 21.0.0, SVG Export Plug-In . SVG Version: 6.00 Build 0)  -->
<svg xmlns="http://www.w3.org/2000/svg" xmlns:xlink="http://www.w3.org/1999/xlink" version="1.1" id="Capa_1" x="0px" y="0px" viewBox="0 0 512 512" style="enable-background:new 0 0 512 512;" xml:space="preserve" width="512" height="512">
<g>
	<path d="M457,9.5H55c-30.327,0-55,24.673-55,55v313c0,30.327,24.673,55,55,55h138v40h-56c-8.284,0-15,6.716-15,15s6.716,15,15,15   c10.129,0,225.459,0,236,0c8.284,0,15-6.716,15-15s-6.716-15-15-15h-56v-40h140c30.327,0,55-24.673,55-55v-313   C512,34.173,487.327,9.5,457,9.5z M55,39.5h402c13.785,0,25,11.215,25,25v263H30v-263C30,50.715,41.215,39.5,55,39.5z M287,472.5   h-64v-40h64V472.5z M457,402.5c-17.452,0-384.267,0-402,0c-13.785,0-25-11.215-25-25v-20h452v20   C482,391.285,470.785,402.5,457,402.5z"/>
	<path d="M185,297.5h141c8.284,0,15-6.716,15-15v-104c0-8.284-6.716-15-15-15H226V129c0-15.991,13.009-29,29-29   c15.99,0,29,13.009,29,29c0,8.284,6.716,15,15,15s15-6.716,15-15c0-32.533-26.468-59-59-59c-32.533,0-59,26.467-59,59v34.5h-11   c-8.284,0-15,6.716-15,15v104C170,290.784,176.716,297.5,185,297.5z M311,267.5H200v-74h111V267.5z"/>
</g>















</svg>
